<svg preserveAspectRatio="none" width="100%" height="100%" overflow="visible" style="display: block;" viewBox="0 0 48 40" fill="none" xmlns="http://www.w3.org/2000/svg">
<g id="&#228;&#188;&#129;&#228;&#184;&#154;&#229;&#190;&#174;&#228;&#191;&#161;-copy 1">
<path id="Vector" d="M26.98 32.375C24.1679 33.5 21.1684 33.6875 18.1689 33.5C16.8566 33.3125 15.5443 33.125 14.2321 32.75C14.0446 32.75 13.8571 32.75 13.6697 32.9375C11.9824 33.6875 10.2952 34.625 8.79544 35.375C8.23304 35.75 7.67063 35.75 7.10822 35.375C6.54581 35 6.54581 34.4375 6.54581 33.6875C6.92075 32.375 6.92075 31.0625 7.10822 29.75C7.10822 29.5625 6.92075 29.375 6.92075 29.1875C5.04605 27.3125 3.5463 25.4375 2.42148 23C0.546786 18.5 0.921725 14 3.5463 9.875C6.17087 5.375 10.2952 2.9375 15.1694 1.8125C20.0436 0.6875 24.7304 1.25 29.2296 3.5C33.3539 5.5625 36.3535 8.75 37.6657 13.25C38.2282 14.9375 38.4156 16.625 38.2282 18.3125C37.2908 17.375 36.166 17.1875 35.0412 17.75C35.0412 16.625 35.0412 15.5 34.6662 14.375C33.9164 11.75 32.4166 9.6875 30.5419 8C27.3549 5.375 23.4181 4.25 19.2937 4.25C14.9819 4.625 11.2325 6.125 8.23304 9.125C5.79593 11.5625 4.48365 14.5625 4.67111 18.125C4.85858 21.125 6.17087 23.5625 8.04557 25.625L9.54532 27.125C10.2952 27.6875 10.4827 28.25 10.1077 29C9.92026 29.75 9.73279 30.6875 9.54532 31.4375C9.54532 31.625 9.35785 31.8125 9.54532 31.8125C9.73279 32 9.92026 31.8125 9.92026 31.8125C10.8576 31.25 11.9824 30.6875 12.9198 29.9375C13.4822 29.5625 14.0446 29.5625 14.7945 29.75C17.9814 30.6875 21.3559 30.6875 24.5429 29.75C24.7304 29.75 24.9178 29.5625 24.9178 29.9375C25.2928 31.0625 25.8552 31.8125 26.98 32.375Z" fill="var(--fill-0, #0082EF)"/>
<path id="Vector_2" d="M45.7269 28.625C45.7269 29.9375 44.7896 30.875 43.6648 31.0625C41.7901 31.4375 40.2903 32.1875 38.978 33.5C38.6031 33.875 38.4156 33.875 38.0407 33.6875C37.8532 33.5 37.8532 33.125 38.0407 32.75C39.353 31.4375 40.1028 29.75 40.4778 28.0625C40.6653 26.75 41.9775 26 43.2898 26C44.7896 26.1875 45.7269 27.3125 45.7269 28.625Z" fill="var(--fill-0, #0081EE)"/>
<path id="Vector_3" d="M36.166 38.75C34.8537 38.75 33.7289 37.8125 33.5414 36.6875C33.3539 34.8125 32.4166 33.3125 31.1043 32.1875C30.9168 32 30.7294 31.8125 30.9168 31.4375C31.1043 30.875 31.4792 30.875 31.8542 31.0625C32.2291 31.25 32.4166 31.625 32.6041 31.8125C33.7289 32.75 35.0412 33.3125 36.3535 33.5C37.6657 33.6875 38.6031 35 38.4156 36.3125C38.6031 37.625 37.4783 38.75 36.166 38.75Z" fill="var(--fill-0, #FA6202)"/>
<path id="Vector_4" d="M26.2301 29C26.2301 27.6875 26.98 26.75 28.2923 26.375C30.167 26 31.6667 25.25 32.979 23.9375C33.3539 23.5625 33.7289 23.5625 33.9164 23.9375C34.1038 24.125 34.1038 24.5 33.7289 24.875C32.6041 26 31.8542 27.3125 31.4793 29C31.4793 29.1875 31.4793 29.5625 31.2918 29.75C30.9168 31.0625 29.792 31.8125 28.4797 31.625C27.1675 31.4375 26.2301 30.3125 26.2301 29Z" fill="var(--fill-0, #FECD00)"/>
<path id="Vector_5" d="M39.1655 22.4375C39.7279 23.5625 40.2903 24.5 41.0402 25.25C41.4151 25.625 41.4151 26 41.2277 26.1875C41.0402 26.5625 40.6653 26.5625 40.2903 26.1875C39.353 25.0625 38.0407 24.3125 36.7284 23.9375C36.3535 23.75 35.9785 23.75 35.6036 23.75C34.8537 23.5625 34.1038 23.1875 33.9164 22.25C33.5414 21.3125 33.5414 20.375 34.2913 19.625C35.0412 18.6875 35.9785 18.5 36.9159 18.6875C37.8532 19.0625 38.6031 19.625 38.7906 20.75C38.7906 21.3125 38.978 21.875 39.1655 22.4375Z" fill="var(--fill-0, #2CBD00)"/>
</g>
</svg>
