<svg preserveAspectRatio="none" width="100%" height="100%" overflow="visible" style="display: block;" viewBox="0 0 750 421" fill="none" xmlns="http://www.w3.org/2000/svg">
<g id="bg">
<mask id="mask0_62_992" style="mask-type:alpha" maskUnits="userSpaceOnUse" x="0" y="0" width="750" height="421">
<g id="Rectangle 173">
<path d="M0 0H750V421H0V0Z" fill="url(#paint0_linear_62_992)"/>
<path d="M36 16.0727C36 15.5 37.7909 15.0357 40 15.0357H48C50.2091 15.0357 52 15.5 52 16.0727C52 16.6453 50.2091 17.1096 48 17.1096H40C37.7909 17.1096 36 16.6453 36 16.0727Z" fill="url(#paint1_linear_62_992)"/>
<path d="M0 5.96244C0 2.66947 10.2975 0 23 0H64C76.7025 0 87 2.66947 87 5.96244C87 9.2554 76.7025 11.9249 64 11.9249H23C10.2975 11.9249 0 9.2554 0 5.96244Z" fill="url(#paint2_linear_62_992)"/>
<path d="M31.832 8.00211H42.726V8.81093H19.222V8.00211H28.504V2.92678H31.832V4.8612H41.036V5.67002H31.832V8.00211ZM65.814 5.05667L68.466 5.55544C66.776 5.98681 64.696 6.4384 62.876 6.78888C64.358 7.34158 66.412 7.81339 69.428 8.2515C68.622 8.40652 67.66 8.70983 67.27 8.95921C60.588 7.86057 58.222 6.61364 56.948 4.96904C55.908 5.29257 54.764 5.60262 53.49 5.8857V7.94819L59.314 7.51008C59.444 7.73924 59.782 8.06951 59.99 8.25824C52.216 8.87833 50.994 8.98617 50.162 9.13446C49.876 8.97269 49.044 8.66939 48.55 8.53458C49.2 8.41326 50.318 8.15039 50.318 7.77969V6.51254C49.07 6.72822 47.796 6.91695 46.47 7.07197C46.106 6.87651 45.274 6.54624 44.728 6.371C48.29 5.98681 51.696 5.33301 53.932 4.63878H45.508V3.8704H55.882C55.596 3.60753 55.076 3.28401 54.634 3.02114L57.78 2.78524C58.43 3.0818 59.158 3.48621 59.418 3.74234L57.832 3.8704H68.518V4.63878H59.756C60.146 5.18473 60.666 5.67676 61.446 6.13509C63.032 5.80482 64.696 5.40715 65.814 5.05667Z" fill="url(#paint3_linear_62_992)"/>
</g>
</mask>
<g mask="url(#mask0_62_992)">
<g id="Rectangle 174">
<path d="M0 0H750V421H0V0Z" fill="url(#paint4_linear_62_992)"/>
<path d="M36 16.0727C36 15.5 37.7909 15.0357 40 15.0357H48C50.2091 15.0357 52 15.5 52 16.0727C52 16.6453 50.2091 17.1096 48 17.1096H40C37.7909 17.1096 36 16.6453 36 16.0727Z" fill="url(#paint5_linear_62_992)"/>
<path d="M0 5.96244C0 2.66947 10.2975 0 23 0H64C76.7025 0 87 2.66947 87 5.96244C87 9.2554 76.7025 11.9249 64 11.9249H23C10.2975 11.9249 0 9.2554 0 5.96244Z" fill="url(#paint6_linear_62_992)"/>
<path d="M31.832 8.00211H42.726V8.81093H19.222V8.00211H28.504V2.92678H31.832V4.8612H41.036V5.67002H31.832V8.00211ZM65.814 5.05667L68.466 5.55544C66.776 5.98681 64.696 6.4384 62.876 6.78888C64.358 7.34158 66.412 7.81339 69.428 8.2515C68.622 8.40652 67.66 8.70983 67.27 8.95921C60.588 7.86057 58.222 6.61364 56.948 4.96904C55.908 5.29257 54.764 5.60262 53.49 5.8857V7.94819L59.314 7.51008C59.444 7.73924 59.782 8.06951 59.99 8.25824C52.216 8.87833 50.994 8.98617 50.162 9.13446C49.876 8.97269 49.044 8.66939 48.55 8.53458C49.2 8.41326 50.318 8.15039 50.318 7.77969V6.51254C49.07 6.72822 47.796 6.91695 46.47 7.07197C46.106 6.87651 45.274 6.54624 44.728 6.371C48.29 5.98681 51.696 5.33301 53.932 4.63878H45.508V3.8704H55.882C55.596 3.60753 55.076 3.28401 54.634 3.02114L57.78 2.78524C58.43 3.0818 59.158 3.48621 59.418 3.74234L57.832 3.8704H68.518V4.63878H59.756C60.146 5.18473 60.666 5.67676 61.446 6.13509C63.032 5.80482 64.696 5.40715 65.814 5.05667Z" fill="url(#paint7_linear_62_992)"/>
</g>
<g id="Ellipse 34" filter="url(#filter0_f_62_992)">
<ellipse cx="102.5" cy="116.5" rx="297.5" ry="287.5" fill="var(--fill-0, #C9F876)"/>
<path d="M102.5 -170.5C266.545 -170.5 399.5 -41.9897 399.5 116.5C399.5 274.99 266.545 403.5 102.5 403.5C-61.5448 403.5 -194.5 274.99 -194.5 116.5C-194.5 -41.9897 -61.5448 -170.5 102.5 -170.5Z" stroke="var(--stroke-0, black)"/>
</g>
<g id="Ellipse 35" filter="url(#filter1_f_62_992)">
<ellipse cx="558.5" cy="165" rx="154.5" ry="155" fill="var(--fill-0, #C9F876)"/>
<path d="M558.5 10.5C643.55 10.5 712.5 79.6705 712.5 165C712.5 250.33 643.55 319.5 558.5 319.5C473.45 319.5 404.5 250.33 404.5 165C404.5 79.6705 473.45 10.5 558.5 10.5Z" stroke="var(--stroke-0, black)"/>
</g>
</g>
</g>
<defs>
<filter id="filter0_f_62_992" x="-295" y="-271" width="795" height="775" filterUnits="userSpaceOnUse" color-interpolation-filters="sRGB">
<feFlood flood-opacity="0" result="BackgroundImageFix"/>
<feBlend mode="normal" in="SourceGraphic" in2="BackgroundImageFix" result="shape"/>
<feGaussianBlur stdDeviation="50" result="effect1_foregroundBlur_62_992"/>
</filter>
<filter id="filter1_f_62_992" x="304" y="-90" width="509" height="510" filterUnits="userSpaceOnUse" color-interpolation-filters="sRGB">
<feFlood flood-opacity="0" result="BackgroundImageFix"/>
<feBlend mode="normal" in="SourceGraphic" in2="BackgroundImageFix" result="shape"/>
<feGaussianBlur stdDeviation="50" result="effect1_foregroundBlur_62_992"/>
</filter>
<linearGradient id="paint0_linear_62_992" x1="375" y1="0" x2="375" y2="482.5" gradientUnits="userSpaceOnUse">
<stop offset="0.312634" stop-color="#E9EBEA"/>
<stop offset="0.876078" stop-color="#848584" stop-opacity="0"/>
</linearGradient>
<linearGradient id="paint1_linear_62_992" x1="375" y1="0" x2="375" y2="482.5" gradientUnits="userSpaceOnUse">
<stop offset="0.312634" stop-color="#E9EBEA"/>
<stop offset="0.876078" stop-color="#848584" stop-opacity="0"/>
</linearGradient>
<linearGradient id="paint2_linear_62_992" x1="375" y1="0" x2="375" y2="482.5" gradientUnits="userSpaceOnUse">
<stop offset="0.312634" stop-color="#E9EBEA"/>
<stop offset="0.876078" stop-color="#848584" stop-opacity="0"/>
</linearGradient>
<linearGradient id="paint3_linear_62_992" x1="375" y1="0" x2="375" y2="482.5" gradientUnits="userSpaceOnUse">
<stop offset="0.312634" stop-color="#E9EBEA"/>
<stop offset="0.876078" stop-color="#848584" stop-opacity="0"/>
</linearGradient>
<linearGradient id="paint4_linear_62_992" x1="415.5" y1="-25" x2="375" y2="421" gradientUnits="userSpaceOnUse">
<stop stop-color="#C7F770" stop-opacity="0.5"/>
<stop offset="1" stop-color="#C7F770"/>
</linearGradient>
<linearGradient id="paint5_linear_62_992" x1="415.5" y1="-25" x2="375" y2="421" gradientUnits="userSpaceOnUse">
<stop stop-color="#C7F770" stop-opacity="0.5"/>
<stop offset="1" stop-color="#C7F770"/>
</linearGradient>
<linearGradient id="paint6_linear_62_992" x1="415.5" y1="-25" x2="375" y2="421" gradientUnits="userSpaceOnUse">
<stop stop-color="#C7F770" stop-opacity="0.5"/>
<stop offset="1" stop-color="#C7F770"/>
</linearGradient>
<linearGradient id="paint7_linear_62_992" x1="415.5" y1="-25" x2="375" y2="421" gradientUnits="userSpaceOnUse">
<stop stop-color="#C7F770" stop-opacity="0.5"/>
<stop offset="1" stop-color="#C7F770"/>
</linearGradient>
</defs>
</svg>
